# xmcd CD database file
#
# Track frame offsets:
#	183
#	19545
#	38218
#	51045
#	62288
#	75793
#	90455
#	108628
#	126340
#	140188
#	153320
#	163570
#	179245
#	195680
#	215860
#	233218
#	251838
#	270458
#
# Disc length: 3733 seconds
#
# Revision: 1
# Processed by: cddbd v1.5.1PL0 Copyright (c) Steve Scherf et al.
# Submitted via: CDex 1.51
#
DISCID=fb0e9312
DTITLE=Various Artist - Gefühle - Vol.9 - Die schönsten romantischen Schlager
DYEAR=1900
DGENRE=Oldies
TTITLE0=Peter Alexander - Die kleine Kneipe
TTITLE1=Penny McLean - Zwischen zwei Gefühlen
TTITLE2=Bernd Clüver - Wer hat ein Herz, das nie bricht
TTITLE3=Pussycat - Georgie
TTITLE4=Roger Whittaker - Das alte Schiff
TTITLE5=Elke Best - Ich bin nicht Liza
TTITLE6=Bernhard Brink - Liebe auf Zeit
TTITLE7=Michael Holm - Lucille
TTITLE8=Costa Cordalis - Anita
TTITLE9=Jürgen Drews - Wir zieh'n heut Abend auf's Dach
TTITLE10=Katja Ebstein - Wenn ein Bild mehr sagt als jedes Wort
TTITLE11=Karel Gott - Wenn aller Tage Abend ist
TTITLE12=Ireen Sheer - Oh, mon amour
TTITLE13=Stephan Slowik - Ich bin allein
TTITLE14=Tony Marshall - Bora Bora
TTITLE15=Howard Carpendale - Ti Amo
TTITLE16=Marianne Rosenberg - Lieder der Nacht
TTITLE17=Stephan Sulke - Du machst mir noch mein Herz kaputt
EXTD=
EXTT0=
EXTT1=
EXTT2=
EXTT3=
EXTT4=
EXTT5=
EXTT6=
EXTT7=
EXTT8=
EXTT9=
EXTT10=
EXTT11=
EXTT12=
EXTT13=
EXTT14=
EXTT15=
EXTT16=
EXTT17=
PLAYORDER=
